<svg width="227" height="60" viewBox="0 0 227 60" fill="none" xmlns="http://www.w3.org/2000/svg">
<path d="M2.77832 59.4629H0V0H2.77832V59.4629ZM6.94531 59.4629H5.55664V0H6.94531V59.4629ZM34.7236 59.4629H33.334V0H34.7236V59.4629ZM54.9658 59.4629H50.9688V0H54.9658V59.4629ZM74.54 59.4629H72.2256V0H74.54V59.4629ZM90.7451 59.4629H89.3555V0H90.7451V59.4629ZM198.156 59.4629H196.767V0H198.156V59.4629ZM15.3994 59.3779H11.9775V0.631836H15.3994V59.3779ZM28.5176 59.3779H22.8145V0.631836H28.5176V59.3779ZM41.6357 59.3779H37.6436V0.631836H41.6357V59.3779ZM48.4795 59.3779H44.4873V0.631836H48.4795V59.3779ZM66.1611 59.3779H58.7461V0.631836H66.1611V59.3779ZM84.4121 59.3779H79.2793V0.631836H84.4121V59.3779ZM102.663 59.3779H99.2412V0.631836H102.663V59.3779ZM110.078 59.3779H107.227V0.631836H110.078V59.3779ZM114.641 59.3779H112.93V0.631836H114.641V59.3779ZM124.907 59.3779H119.203V0.631836H124.907V59.3779ZM135.744 59.3779H130.04V0.631836H135.744V59.3779ZM142.018 59.3779H140.877V0.631836H142.018V59.3779ZM148.862 59.3779H144.869V0.631836H148.862V59.3779ZM156.276 59.3779H151.714V0.631836H156.276V59.3779ZM163.121 59.3779H159.128V0.631836H163.121V59.3779ZM174.527 59.3779H167.113V0.631836H174.527V59.3779ZM181.942 59.3779H179.661V0.631836H181.942V59.3779ZM191.639 59.3779H187.075V0.631836H191.639V59.3779ZM209.89 59.3779H205.326V0.631836H209.89V59.3779ZM217.304 59.3779H215.022V0.631836H217.304V59.3779ZM227 59.3779H222.438V0.631836H227V59.3779Z" fill="#E6FF2A"/>
</svg>
